<svg xmlns="http://www.w3.org/2000/svg" width="71" height="59" viewBox="0 0 71 59"><defs><style>.a,.e{fill:none;}.a{stroke:#707070;opacity:0;}.b,.c{fill:#c4c4c4;}.b{font-size:9px;font-family:BasisGrotesquePro-Regular, Basis Grotesque Pro;}.d{stroke:none;}</style></defs><g transform="translate(-208.928 -753)"><g class="a" transform="translate(208.928 753)"><rect class="d" width="71" height="59"/><rect class="e" x="0.5" y="0.5" width="70" height="58"/></g><text class="b" transform="translate(218.037 799)"><tspan x="0" y="0">Cryptosave</tspan></text><g transform="translate(230.113 762.424)"><path class="c" d="M20.508,11.952a6.242,6.242,0,0,0,1.92-2.569,8.446,8.446,0,0,1,.42,2.734,8.134,8.134,0,0,1-1.732,5.213,7.191,7.191,0,0,1-1.2,1.189c-.066.051-.127.1-.184.137v1.628a2.341,2.341,0,0,1-2.341,2.341h-.78a1.561,1.561,0,0,1-1.561-1.561H11.924a1.561,1.561,0,0,1-1.561,1.561h-.78a2.341,2.341,0,0,1-2.341-2.341v-.333c-.135-.043-.286-.1-.448-.162a6.491,6.491,0,0,1-2.188-1.454A7.821,7.821,0,0,1,2.9,15.49a.67.67,0,0,0-.421-.439A2.039,2.039,0,0,1,1,13.089V11.85A2.013,2.013,0,0,1,2.46,9.914a.685.685,0,0,0,.422-.464A6.052,6.052,0,0,1,4.24,7.123,9.075,9.075,0,0,1,6,5.752c.151-.091.289-.168.408-.232V2.589a1.185,1.185,0,0,1,.75-1.1,1.209,1.209,0,0,1,1.289.235A10.956,10.956,0,0,0,9.917,2.907a3.723,3.723,0,0,0,1.538.653h.008a6.256,6.256,0,0,0-1.027,4.221,3.837,3.837,0,0,0,2.473,3l3.728,1.544A3.837,3.837,0,0,0,20.508,11.952ZM6.852,10.919a1.17,1.17,0,1,0-1.17-1.17A1.17,1.17,0,0,0,6.852,10.919Z" transform="translate(-1 -1.4)"/><path class="c" d="M8.329,4.81a4.409,4.409,0,1,1,6.835,5.082c-.612.483-1.881.327-3.3,0A4.306,4.306,0,0,1,9.481,8.586c-.953-.737-1.341-.866-1.432-1.64A4.384,4.384,0,0,1,8.062,5.82Zm0,0-.2.645q.046-.2.112-.4Q8.282,4.93,8.329,4.81Z" transform="translate(2.935 -1.051)"/></g></g></svg>