<svg xmlns="http://www.w3.org/2000/svg" width="74" height="60" viewBox="0 0 74 60"><defs><style>.a,.c{fill:#c4c4c4;}.a{font-size:9px;font-family:BasisGrotesquePro-Regular, Basis Grotesque Pro;}.b,.f{fill:none;}.b{stroke:#707070;opacity:0;}.d{fill:#fff;}.e{stroke:none;}</style></defs><g transform="translate(-339 -753)"><text class="a" transform="translate(366 801)"><tspan x="0" y="0">More</tspan></text><g class="b" transform="translate(339 753)"><rect class="e" width="74" height="60"/><rect class="f" x="0.5" y="0.5" width="73" height="59"/></g><g transform="translate(361 761.218)"><rect class="c" width="20" height="20" rx="4" transform="translate(5 5.332)"/><path class="d" d="M20,15H17V12a1,1,0,0,0-2,0v3H12a1,1,0,0,0,0,2h3v3a1,1,0,0,0,2,0V17h3a1,1,0,0,0,0-2Z" transform="translate(-0.834 -0.834)"/><path class="d" d="M20,15H17V12a1,1,0,0,0-1-1V21a1,1,0,0,0,1-1V17h3a1,1,0,0,0,0-2Z" transform="translate(-1.08 -0.834)"/></g></g></svg>